<svg xmlns="http://www.w3.org/2000/svg" viewBox="0 0 880 220" width="880" height="220" role="img" aria-label="A year of commits as a contour map via marching squares"><defs><pattern id="g" width="34" height="34" patternUnits="userSpaceOnUse"><path d="M34 0H0V34" fill="none" stroke="#141b26" stroke-width="1"/></pattern><filter id="glow" x="-10%" y="-40%" width="120%" height="180%"><feGaussianBlur stdDeviation="1.4" result="b"/><feMerge><feMergeNode in="b"/><feMergeNode in="SourceGraphic"/></feMerge></filter></defs><rect width="880" height="220" fill="#0b0e14"/><rect width="880" height="220" fill="url(#g)" opacity="0.5"/><rect x="0.5" y="0.5" width="879" height="219" fill="none" stroke="#1b2330"/><g fill="none" stroke="#4dd4e0" stroke-width="1.00" stroke-linecap="round" opacity="0.18" filter="url(#glow)"><path d="M78.3 20.0 L78.7 27.5 M93.5 20.0 L93.2 27.5 M331.2 20.0 L332.9 23.1 M332.9 23.1 L337.1 25.0 M338.1 20.0 L341.2 22.5 M337.1 25.0 L337.4 27.5 M341.2 22.5 L345.3 22.7 M345.3 22.7 L349.4 22.8 M349.4 22.8 L353.5 26.3 M353.5 26.3 L354.5 27.5 M385.6 20.0 L386.5 22.1 M386.5 22.1 L389.2 27.5 M414.3 20.0 L411.9 27.5 M436.2 20.0 L437.0 27.5 M460.3 20.0 L459.3 27.5 M468.1 20.0 L468.3 27.5 M494.2 20.0 L494.1 27.5 M553.0 20.0 L554.9 27.5 M577.9 27.5 L580.0 23.1 M581.7 20.0 L580.0 23.1 M652.2 20.0 L653.9 27.5 M742.3 27.5 L744.7 23.1 M744.7 23.1 L746.0 27.5 M771.7 20.0 L771.9 27.5 M799.7 20.0 L799.9 27.5 M822.4 27.5 L822.9 21.7 M823.1 20.0 L822.9 21.7 M856.2 20.0 L860.0 27.0 M78.7 27.5 L79.2 35.0 M93.2 27.5 L92.9 35.0 M337.4 27.5 L337.5 35.0 M354.5 27.5 L357.6 33.5 M357.6 33.5 L358.2 35.0 M389.2 27.5 L390.6 29.8 M390.6 29.8 L394.7 35.0 M406.2 35.0 L407.1 34.3 M407.1 34.3 L411.2 29.0 M411.9 27.5 L411.2 29.0 M437.0 27.5 L438.5 35.0 M459.3 27.5 L457.6 35.0 M468.3 27.5 L468.5 35.0 M494.1 27.5 L493.9 35.0 M554.9 27.5 L555.3 28.5 M555.3 28.5 L558.9 35.0 M571.3 35.0 L571.8 34.6 M571.8 34.6 L575.9 30.5 M577.9 27.5 L575.9 30.5 M653.9 27.5 L654.1 28.1 M654.1 28.1 L656.9 35.0 M710.3 35.0 L711.8 29.8 M711.8 29.8 L715.9 34.5 M715.9 34.5 L716.3 35.0 M738.2 35.0 L740.6 30.6 M742.3 27.5 L740.6 30.6 M746.0 27.5 L747.7 35.0 M771.9 27.5 L772.1 35.0 M799.9 27.5 L800.2 35.0 M822.4 27.5 L821.7 35.0 M79.2 35.0 L79.8 42.5 M92.9 35.0 L92.5 42.5 M337.5 35.0 L337.6 42.5 M358.2 35.0 L360.1 42.5 M394.7 35.0 L394.7 35.0 M394.7 35.0 L398.8 38.8 M398.8 38.8 L402.9 37.1 M406.2 35.0 L402.9 37.1 M438.5 35.0 L440.0 39.8 M440.0 39.8 L441.3 42.5 M454.6 42.5 L456.5 38.5 M457.6 35.0 L456.5 38.5 M468.5 35.0 L468.7 42.5 M493.9 35.0 L493.7 42.5 M528.9 42.5 L530.6 40.2 M530.6 40.2 L532.3 42.5 M558.9 35.0 L559.4 35.7 M559.4 35.7 L563.5 39.2 M563.5 39.2 L567.6 37.4 M571.3 35.0 L567.6 37.4 M656.9 35.0 L658.2 37.1 M658.2 37.1 L662.4 41.6 M662.4 41.6 L662.6 42.5 M706.8 42.5 L707.6 41.1 M710.3 35.0 L707.6 41.1 M716.3 35.0 L720.0 39.8 M720.0 39.8 L721.9 42.5 M734.1 42.5 L736.5 38.1 M738.2 35.0 L736.5 38.1 M747.7 35.0 L748.8 41.6 M748.8 41.6 L749.0 42.5 M772.1 35.0 L772.3 42.5 M800.2 35.0 L800.6 42.5 M821.7 35.0 L821.0 42.5 M79.8 42.5 L80.5 50.0 M92.5 42.5 L92.1 50.0 M337.6 42.5 L337.6 50.0 M360.1 42.5 L361.2 50.0 M441.3 42.5 L444.1 46.2 M444.1 46.2 L448.2 49.2 M448.2 49.2 L452.4 45.7 M454.6 42.5 L452.4 45.7 M468.7 42.5 L468.8 47.0 M468.8 47.0 L468.9 50.0 M493.4 50.0 L493.5 47.0 M493.7 42.5 L493.5 47.0 M525.2 50.0 L526.5 46.9 M526.5 46.9 L528.9 42.5 M532.3 42.5 L534.7 46.9 M534.7 46.9 L536.0 50.0 M662.6 42.5 L663.9 50.0 M699.1 50.0 L699.4 49.8 M699.4 49.8 L703.5 46.6 M706.8 42.5 L703.5 46.6 M721.9 42.5 L724.1 46.0 M724.1 46.0 L726.5 50.0 M730.0 50.0 L732.4 45.6 M734.1 42.5 L732.4 45.6 M749.0 42.5 L749.9 50.0 M772.3 42.5 L772.4 50.0 M800.6 42.5 L800.9 50.0 M821.0 42.5 L820.2 50.0 M80.5 50.0 L81.8 53.4 M81.8 53.4 L84.0 57.5 M88.6 57.5 L90.0 55.5 M92.1 50.0 L90.0 55.5 M337.6 50.0 L337.9 57.5 M361.2 50.0 L361.0 57.5 M468.9 50.0 L470.3 57.5 M493.4 50.0 L492.0 57.5 M525.2 50.0 L526.5 53.1 M526.5 53.1 L528.9 57.5 M532.3 57.5 L534.7 53.1 M536.0 50.0 L534.7 53.1 M663.9 50.0 L664.4 57.5 M699.1 50.0 L699.4 50.3 M699.4 50.3 L703.5 53.8 M703.5 53.8 L707.6 55.7 M707.6 55.7 L711.8 57.0 M711.8 57.0 L715.9 56.4 M715.9 56.4 L720.0 55.3 M720.0 55.3 L724.1 53.0 M724.1 53.0 L726.5 50.0 M730.0 50.0 L732.1 57.5 M749.9 50.0 L750.6 57.5 M772.4 50.0 L771.7 57.5 M800.9 50.0 L802.4 55.6 M802.4 55.6 L803.0 57.5 M818.2 57.5 L818.8 55.6 M820.2 50.0 L818.8 55.6 M84.0 57.5 L85.9 59.8 M88.6 57.5 L85.9 59.8 M337.9 57.5 L338.1 65.0 M361.0 57.5 L360.7 65.0 M470.3 57.5 L472.9 64.6 M472.9 64.6 L473.1 65.0 M489.2 65.0 L489.4 64.6 M492.0 57.5 L489.4 64.6 M528.9 57.5 L530.6 59.8 M532.3 57.5 L530.6 59.8 M664.4 57.5 L665.0 65.0 M732.1 57.5 L732.4 58.8 M732.4 58.8 L733.6 65.0 M750.6 57.5 L751.5 65.0 M771.7 57.5 L770.8 65.0 M803.0 57.5 L806.5 64.6 M806.5 64.6 L806.8 65.0 M814.4 65.0 L814.7 64.6 M818.2 57.5 L814.7 64.6 M338.1 65.0 L338.5 72.5 M360.7 65.0 L360.3 72.5 M396.0 72.5 L398.8 66.9 M398.8 66.9 L402.5 72.5 M473.1 65.0 L477.1 69.8 M477.1 69.8 L481.2 72.3 M481.2 72.3 L485.3 69.8 M489.2 65.0 L485.3 69.8 M665.0 65.0 L665.9 72.5 M733.6 65.0 L734.9 72.5 M751.5 65.0 L752.8 72.5 M770.8 65.0 L769.6 72.5 M806.8 65.0 L810.6 69.1 M814.4 65.0 L810.6 69.1 M100.6 80.0 L102.4 76.2 M102.4 76.2 L104.1 80.0 M338.5 72.5 L338.8 80.0 M360.3 72.5 L360.0 80.0 M393.4 80.0 L394.7 75.8 M394.7 75.8 L396.0 72.5 M402.5 72.5 L402.9 73.4 M402.9 73.4 L405.0 80.0 M665.9 72.5 L666.5 76.0 M666.5 76.0 L667.3 80.0 M734.9 72.5 L735.9 80.0 M752.8 72.5 L752.9 73.4 M752.9 73.4 L754.5 80.0 M767.8 80.0 L769.4 73.4 M769.6 72.5 L769.4 73.4 M100.6 80.0 L99.0 87.5 M104.1 80.0 L105.2 87.5 M336.1 87.5 L337.1 85.9 M337.1 85.9 L338.8 80.0 M360.0 80.0 L358.0 87.5 M393.4 80.0 L394.7 83.1 M394.7 83.1 L397.1 87.5 M401.1 87.5 L402.9 84.8 M405.0 80.0 L402.9 84.8 M664.9 87.5 L666.5 81.5 M666.5 81.5 L667.3 80.0 M735.9 80.0 L736.5 80.5 M736.5 80.5 L740.6 83.0 M740.6 83.0 L744.7 84.7 M744.7 84.7 L748.8 84.0 M748.8 84.0 L752.9 82.1 M752.9 82.1 L754.5 80.0 M767.8 80.0 L768.7 87.5 M97.0 95.0 L98.2 90.5 M98.2 90.5 L99.0 87.5 M105.2 87.5 L106.2 95.0 M318.5 95.0 L320.6 94.0 M320.6 94.0 L324.7 92.4 M324.7 92.4 L328.8 91.1 M328.8 91.1 L332.9 90.1 M332.9 90.1 L336.1 87.5 M354.1 95.0 L357.6 88.5 M358.0 87.5 L357.6 88.5 M397.1 87.5 L398.8 89.8 M401.1 87.5 L398.8 89.8 M429.2 95.0 L431.8 92.7 M431.8 92.7 L434.1 95.0 M480.8 95.0 L481.2 94.7 M481.2 94.7 L481.6 95.0 M664.9 87.5 L664.1 95.0 M760.0 95.0 L761.2 92.1 M761.2 92.1 L765.3 93.8 M768.7 87.5 L769.4 88.8 M765.3 93.8 L766.0 95.0 M769.4 88.8 L773.5 90.4 M773.5 90.4 L777.6 90.8 M777.6 90.8 L781.8 94.3 M781.8 94.3 L782.3 95.0 M97.0 95.0 L94.6 102.5 M106.2 95.0 L106.5 97.5 M106.5 97.5 L107.0 102.5 M311.8 102.5 L312.4 101.5 M312.4 101.5 L316.5 96.1 M316.5 96.1 L318.5 95.0 M346.2 102.5 L349.4 99.2 M349.4 99.2 L353.5 95.7 M354.1 95.0 L353.5 95.7 M423.9 102.5 L427.6 96.7 M427.6 96.7 L429.2 95.0 M434.1 95.0 L435.9 97.2 M435.9 97.2 L439.3 102.5 M475.4 102.5 L477.1 99.5 M477.1 99.5 L480.8 95.0 M481.6 95.0 L485.3 99.5 M485.3 99.5 L486.9 102.5 M664.1 95.0 L663.6 102.5 M695.0 102.5 L695.3 99.9 M695.3 99.9 L698.0 102.5 M760.0 95.0 L759.0 102.5 M766.0 95.0 L766.9 102.5 M782.3 95.0 L785.9 101.5 M785.9 101.5 L786.2 102.5 M857.8 102.5 L860.0 97.8 M91.5 110.0 L94.1 103.7 M94.1 103.7 L94.6 102.5 M107.0 102.5 L107.8 110.0 M311.8 102.5 L308.9 110.0 M343.9 110.0 L345.3 104.3 M346.2 102.5 L345.3 104.3 M420.9 110.0 L423.5 103.2 M423.5 103.2 L423.9 102.5 M439.3 102.5 L440.0 103.9 M440.0 103.9 L442.6 110.0 M472.8 110.0 L472.9 109.3 M472.9 109.3 L475.4 102.5 M486.9 102.5 L489.4 109.3 M489.4 109.3 L489.6 110.0 M663.6 102.5 L663.4 110.0 M695.0 102.5 L694.4 110.0 M698.0 102.5 L699.4 103.7 M699.4 103.7 L703.5 107.2 M703.5 107.2 L707.3 110.0 M759.0 102.5 L758.6 110.0 M766.9 102.5 L767.1 110.0 M786.2 102.5 L788.2 110.0 M857.8 102.5 L856.2 110.0 M91.5 110.0 L91.7 117.5 M107.8 110.0 L109.4 117.5 M308.9 110.0 L311.8 117.5 M343.9 110.0 L342.0 117.5 M420.9 110.0 L423.5 116.1 M423.5 116.1 L424.4 117.5 M438.4 117.5 L440.0 115.2 M442.6 110.0 L440.0 115.2 M472.8 110.0 L472.6 117.5 M487.5 117.5 L489.4 110.8 M489.6 110.0 L489.4 110.8 M639.8 117.5 L641.8 116.3 M641.8 116.3 L645.9 114.7 M645.9 114.7 L650.0 115.7 M650.0 115.7 L654.1 117.2 M654.1 117.2 L654.8 117.5 M663.4 110.0 L663.0 117.5 M694.4 110.0 L695.3 117.5 M707.3 110.0 L707.6 113.8 M707.6 113.8 L711.8 117.0 M711.8 117.0 L711.9 117.5 M758.6 110.0 L758.3 117.5 M767.1 110.0 L769.0 117.5 M788.2 110.0 L786.2 117.5 M856.2 110.0 L860.0 117.0 M91.7 117.5 L91.8 125.0 M109.4 117.5 L110.6 123.8 M110.6 123.8 L110.8 125.0 M311.8 117.5 L312.4 118.5 M312.4 118.5 L316.5 123.9 M316.5 123.9 L318.5 125.0 M338.3 125.0 L341.2 119.8 M342.0 117.5 L341.2 119.8 M424.4 117.5 L427.6 121.1 M427.6 121.1 L431.8 123.9 M431.8 123.9 L435.9 120.5 M438.4 117.5 L435.9 120.5 M472.6 117.5 L471.9 125.0 M484.0 125.0 L485.3 122.8 M487.5 117.5 L485.3 122.8 M634.6 125.0 L637.6 119.5 M637.6 119.5 L639.8 117.5 M654.8 117.5 L658.2 119.6 M658.2 119.6 L662.4 124.7 M662.4 124.7 L663.0 117.5 M695.3 117.5 L695.3 117.7 M695.3 117.7 L699.4 117.8 M699.4 117.8 L703.5 118.2 M703.5 118.2 L706.6 125.0 M711.9 117.5 L713.3 125.0 M758.3 117.5 L758.0 125.0 M769.0 117.5 L769.4 118.5 M769.4 118.5 L773.0 125.0 M782.3 125.0 L785.9 118.5 M786.2 117.5 L785.9 118.5 M91.8 125.0 L91.9 132.5 M110.8 125.0 L111.9 132.5 M318.5 125.0 L320.6 126.0 M320.6 126.0 L324.7 127.6 M324.7 127.6 L328.8 128.9 M328.8 128.9 L332.9 129.9 M332.9 129.9 L337.1 126.6 M338.3 125.0 L337.1 126.6 M460.9 132.5 L464.7 127.9 M464.7 127.9 L468.8 127.5 M468.8 127.5 L471.9 125.0 M473.8 132.5 L477.1 129.2 M477.1 129.2 L481.2 128.8 M484.0 125.0 L481.2 128.8 M632.9 132.5 L633.5 129.0 M633.5 129.0 L634.6 125.0 M706.6 125.0 L706.8 132.5 M713.3 125.0 L714.6 132.5 M758.0 125.0 L757.6 132.5 M773.0 125.0 L773.5 125.7 M773.5 125.7 L777.6 129.2 M777.6 129.2 L781.8 125.7 M782.3 125.0 L781.8 125.7 M91.9 132.5 L91.9 140.0 M111.9 132.5 L112.8 140.0 M458.1 140.0 L460.6 133.1 M460.6 133.1 L460.9 132.5 M473.8 132.5 L473.2 140.0 M632.9 132.5 L632.0 140.0 M706.8 132.5 L706.8 140.0 M714.6 132.5 L715.6 140.0 M757.6 132.5 L757.2 140.0 M91.9 140.0 L93.2 147.5 M112.8 140.0 L111.0 147.5 M368.5 147.5 L370.0 146.1 M370.0 146.1 L374.1 145.1 M374.1 145.1 L378.2 144.8 M378.2 144.8 L382.4 144.6 M382.4 144.6 L386.5 143.9 M386.5 143.9 L390.6 143.2 M390.6 143.2 L394.7 142.4 M394.7 142.4 L398.8 141.5 M398.8 141.5 L402.9 142.4 M402.9 142.4 L407.1 143.7 M407.1 143.7 L411.2 145.7 M411.2 145.7 L413.6 147.5 M456.1 147.5 L456.5 145.8 M456.5 145.8 L458.1 140.0 M473.2 140.0 L477.1 141.4 M477.1 141.4 L481.2 142.4 M481.2 142.4 L485.3 143.6 M485.3 143.6 L489.4 146.1 M489.4 146.1 L490.7 147.5 M632.0 140.0 L632.6 147.5 M706.8 140.0 L707.6 141.5 M707.6 141.5 L711.8 146.4 M711.8 146.4 L715.6 140.0 M756.6 147.5 L757.1 141.4 M757.2 140.0 L757.1 141.4 M69.0 155.0 L69.4 154.7 M69.4 154.7 L69.9 155.0 M93.2 147.5 L94.1 150.8 M94.1 150.8 L95.7 155.0 M108.1 155.0 L110.6 148.9 M111.0 147.5 L110.6 148.9 M368.5 147.5 L367.0 155.0 M413.6 147.5 L415.3 149.2 M415.3 149.2 L419.4 150.8 M419.4 150.8 L423.5 152.5 M423.5 152.5 L427.6 154.3 M427.6 154.3 L429.3 155.0 M456.1 147.5 L454.8 155.0 M490.7 147.5 L493.5 153.6 M493.5 153.6 L493.9 155.0 M632.6 147.5 L633.5 154.4 M633.5 154.4 L633.6 155.0 M756.6 147.5 L755.8 155.0 M63.7 162.5 L65.3 159.5 M65.3 159.5 L69.0 155.0 M69.9 155.0 L73.5 158.1 M73.5 158.1 L76.7 162.5 M95.7 155.0 L98.2 159.1 M98.2 159.1 L101.8 162.5 M102.7 162.5 L106.5 157.9 M108.1 155.0 L106.5 157.9 M367.0 155.0 L366.7 162.5 M429.3 155.0 L431.8 156.1 M431.8 156.1 L435.9 161.5 M435.9 161.5 L436.4 162.5 M454.8 155.0 L453.9 162.5 M493.9 155.0 L495.1 162.5 M633.6 155.0 L635.5 162.5 M659.5 162.5 L662.4 156.9 M662.4 156.9 L664.0 162.5 M755.8 155.0 L754.7 162.5 M61.0 170.0 L61.2 169.3 M61.2 169.3 L63.7 162.5 M76.7 162.5 L77.6 164.4 M77.6 164.4 L79.7 170.0 M101.8 162.5 L102.4 162.9 M102.7 162.5 L102.4 162.9 M366.7 162.5 L366.6 170.0 M436.4 162.5 L439.4 170.0 M453.9 162.5 L453.2 170.0 M495.1 162.5 L495.7 170.0 M635.5 162.5 L637.6 166.8 M637.6 166.8 L640.5 170.0 M652.1 170.0 L654.1 168.5 M654.1 168.5 L658.2 164.4 M659.5 162.5 L658.2 164.4 M664.0 162.5 L666.4 170.0 M725.2 170.0 L728.2 164.0 M728.2 164.0 L732.4 167.1 M732.4 167.1 L735.4 170.0 M754.7 162.5 L753.1 170.0 M61.0 170.0 L61.2 170.8 M61.2 170.8 L63.4 177.5 M76.8 177.5 L77.6 175.6 M79.7 170.0 L77.6 175.6 M366.6 170.0 L367.4 177.5 M439.4 170.0 L436.4 177.5 M453.2 170.0 L454.8 177.5 M495.7 170.0 L495.1 177.5 M640.5 170.0 L641.8 173.1 M641.8 173.1 L644.2 177.5 M648.0 177.5 L650.0 174.6 M652.1 170.0 L650.0 174.6 M666.4 170.0 L666.5 171.7 M666.5 171.7 L667.0 177.5 M725.2 170.0 L724.3 177.5 M735.4 170.0 L734.1 177.5 M753.1 170.0 L757.1 171.9 M757.1 171.9 L761.2 173.0 M761.2 173.0 L765.3 174.1 M765.3 174.1 L769.4 176.1 M769.4 176.1 L771.0 177.5 M63.4 177.5 L65.3 181.5 M65.3 181.5 L67.7 185.0 M71.5 185.0 L73.5 182.7 M76.8 177.5 L73.5 182.7 M326.3 185.0 L328.8 181.9 M328.8 181.9 L332.9 179.0 M332.9 179.0 L337.1 181.9 M337.1 181.9 L339.6 185.0 M367.4 177.5 L368.4 185.0 M430.5 185.0 L431.8 183.9 M431.8 183.9 L435.9 178.5 M436.4 177.5 L435.9 178.5 M454.8 177.5 L456.5 182.1 M456.5 182.1 L458.1 185.0 M495.1 177.5 L494.0 185.0 M539.9 185.0 L542.9 181.3 M542.9 181.3 L547.1 178.5 M547.1 178.5 L551.2 181.3 M551.2 181.3 L554.2 185.0 M644.2 177.5 L645.9 179.8 M648.0 177.5 L645.9 179.8 M667.0 177.5 L667.9 185.0 M722.9 185.0 L724.1 178.9 M724.3 177.5 L724.1 178.9 M734.1 177.5 L733.3 185.0 M771.0 177.5 L773.5 182.2 M773.5 182.2 L774.3 185.0 M67.7 185.0 L69.4 186.9 M71.5 185.0 L69.4 186.9 M323.0 192.5 L324.7 187.9 M324.7 187.9 L326.3 185.0 M339.6 185.0 L341.2 187.9 M341.2 187.9 L342.9 192.5 M368.4 185.0 L370.0 192.5 M423.9 192.5 L427.6 187.9 M430.5 185.0 L427.6 187.9 M458.1 185.0 L460.6 188.1 M460.6 188.1 L464.7 191.0 M464.7 191.0 L466.3 192.5 M491.1 192.5 L493.5 186.8 M494.0 185.0 L493.5 186.8 M536.8 192.5 L538.8 187.0 M538.8 187.0 L539.9 185.0 M554.2 185.0 L555.3 187.0 M555.3 187.0 L557.3 192.5 M667.9 185.0 L669.6 192.5 M722.9 185.0 L720.2 192.5 M733.3 185.0 L732.7 192.5 M774.3 185.0 L775.4 192.5 M323.0 192.5 L321.4 200.0 M342.9 192.5 L344.5 200.0 M370.0 192.5 L370.0 192.5 M370.0 192.5 L372.7 200.0 M419.1 200.0 L419.4 199.5 M419.4 199.5 L423.5 193.0 M423.9 192.5 L423.5 193.0 M466.3 192.5 L468.8 194.2 M468.8 194.2 L472.9 196.1 M472.9 196.1 L477.1 197.4 M477.1 197.4 L481.2 198.3 M481.2 198.3 L485.3 197.0 M485.3 197.0 L489.4 194.5 M491.1 192.5 L489.4 194.5 M536.8 192.5 L535.2 200.0 M557.3 192.5 L558.9 200.0 M669.6 192.5 L670.6 195.2 M670.6 195.2 L673.5 200.0 M713.5 200.0 L715.9 198.2 M715.9 198.2 L720.0 192.9 M720.2 192.5 L720.0 192.9 M732.3 200.0 L732.4 198.1 M732.4 198.1 L732.7 192.5 M775.4 192.5 L776.0 200.0"/><animate attributeName="opacity" values="0.18;0.18;1;0.18;0.18" keyTimes="0;0.12;0.2;0.32;1" dur="12s" begin="0.00s" repeatCount="indefinite"/></g><g fill="none" stroke="#4dd4e0" stroke-width="1.12" stroke-linecap="round" opacity="0.21" filter="url(#glow)"><path d="M445.0 20.0 L448.1 27.5 M451.4 20.0 L448.4 27.5 M474.9 20.0 L475.4 27.5 M487.4 20.0 L486.9 27.5 M668.2 20.0 L668.6 27.5 M703.3 27.5 L703.5 27.0 M706.2 20.0 L703.5 27.0 M448.1 27.5 L448.2 27.8 M448.4 27.5 L448.2 27.8 M475.4 27.5 L476.0 35.0 M486.9 27.5 L486.3 35.0 M668.6 27.5 L668.7 35.0 M698.9 35.0 L699.4 34.3 M703.3 27.5 L699.4 34.3 M476.0 35.0 L476.6 42.5 M486.3 35.0 L485.7 42.5 M668.7 35.0 L668.8 42.5 M693.0 42.5 L695.3 39.0 M698.9 35.0 L695.3 39.0 M760.8 42.5 L761.2 36.9 M761.2 36.9 L761.6 42.5 M346.9 50.0 L349.4 44.2 M349.4 44.2 L351.9 50.0 M476.6 42.5 L477.1 47.0 M477.1 47.0 L477.4 50.0 M485.0 50.0 L485.3 47.0 M485.7 42.5 L485.3 47.0 M668.8 42.5 L668.8 50.0 M690.4 50.0 L691.2 47.1 M693.0 42.5 L691.2 47.1 M760.8 42.5 L760.3 50.0 M761.6 42.5 L762.0 50.0 M346.9 50.0 L347.7 57.5 M351.9 50.0 L351.1 57.5 M477.4 50.0 L481.2 57.0 M485.0 50.0 L481.2 57.0 M668.8 50.0 L670.0 57.5 M690.4 50.0 L690.3 57.5 M760.3 50.0 L761.2 53.3 M762.0 50.0 L761.2 53.3 M347.7 57.5 L348.6 65.0 M351.1 57.5 L350.3 65.0 M670.0 57.5 L670.6 60.6 M670.6 60.6 L671.6 65.0 M690.3 57.5 L690.0 65.0 M348.6 65.0 L349.4 71.6 M350.3 65.0 L349.4 71.6 M671.6 65.0 L673.8 72.5 M690.0 65.0 L689.4 72.5 M708.1 72.5 L711.8 71.0 M711.8 71.0 L714.0 72.5 M673.8 72.5 L674.7 74.9 M674.7 74.9 L677.1 80.0 M686.5 80.0 L687.1 79.4 M689.4 72.5 L687.1 79.4 M699.2 80.0 L699.4 79.7 M699.4 79.7 L703.5 75.2 M703.5 75.2 L707.6 72.7 M707.6 72.7 L708.1 72.5 M714.0 72.5 L715.9 74.0 M715.9 74.0 L720.0 79.2 M720.0 79.2 L720.5 80.0 M669.9 87.5 L670.6 86.3 M670.6 86.3 L674.7 81.5 M674.7 81.5 L677.1 80.0 M686.5 80.0 L687.1 80.1 M687.1 80.1 L691.2 84.7 M691.2 84.7 L691.6 87.5 M699.2 80.0 L699.4 80.3 M699.4 80.3 L703.5 84.9 M703.5 84.9 L706.0 87.5 M720.5 80.0 L720.0 87.5 M669.9 87.5 L667.5 95.0 M691.6 87.5 L692.1 95.0 M706.0 87.5 L707.6 89.1 M707.6 89.1 L711.8 92.9 M711.8 92.9 L715.9 92.4 M715.9 92.4 L720.0 87.5 M720.0 87.5 L724.1 95.0 M720.0 87.5 L724.1 95.0 M724.1 95.0 L728.2 94.1 M728.2 94.1 L732.4 94.2 M732.4 94.2 L736.5 94.2 M736.5 94.2 L740.6 94.2 M740.6 94.2 L744.7 94.2 M744.7 94.2 L745.9 95.0 M666.2 102.5 L666.5 100.5 M666.5 100.5 L667.5 95.0 M692.1 95.0 L692.3 102.5 M724.1 95.0 L721.4 102.5 M745.9 95.0 L748.8 97.9 M748.8 97.9 L751.3 102.5 M666.2 102.5 L665.4 110.0 M692.3 102.5 L692.4 110.0 M721.4 102.5 L721.2 110.0 M751.3 102.5 L752.9 107.9 M752.9 107.9 L753.4 110.0 M665.4 110.0 L665.5 117.5 M692.4 110.0 L692.6 117.5 M721.2 110.0 L721.9 117.5 M752.6 117.5 L752.9 114.4 M753.4 110.0 L752.9 114.4 M645.0 125.0 L645.9 124.2 M645.9 124.2 L647.1 125.0 M665.5 117.5 L665.6 125.0 M692.6 117.5 L693.1 125.0 M721.9 117.5 L722.4 125.0 M752.6 117.5 L751.7 125.0 M639.8 132.5 L641.8 129.0 M641.8 129.0 L645.0 125.0 M647.1 125.0 L650.0 127.1 M650.0 127.1 L654.1 131.5 M654.1 131.5 L654.8 132.5 M665.6 125.0 L665.8 132.5 M693.1 125.0 L694.1 132.5 M722.4 125.0 L722.9 132.5 M751.7 125.0 L750.6 132.5 M637.2 140.0 L637.6 138.5 M637.6 138.5 L639.8 132.5 M654.8 132.5 L658.2 138.9 M658.2 138.9 L658.7 140.0 M665.8 132.5 L666.4 140.0 M694.1 132.5 L695.3 136.7 M695.3 136.7 L697.0 140.0 M722.9 132.5 L723.3 140.0 M750.6 132.5 L749.1 140.0 M637.2 140.0 L637.6 142.0 M637.6 142.0 L639.1 147.5 M655.7 147.5 L658.2 141.3 M658.7 140.0 L658.2 141.3 M666.4 140.0 L666.5 140.3 M666.5 140.3 L668.6 147.5 M697.0 140.0 L695.9 147.5 M723.3 140.0 L724.1 143.3 M724.1 143.3 L726.2 147.5 M747.4 147.5 L748.8 141.4 M749.1 140.0 L748.8 141.4 M380.6 155.0 L382.4 153.8 M382.4 153.8 L386.5 153.6 M386.5 153.6 L390.6 153.5 M390.6 153.5 L394.7 153.2 M394.7 153.2 L398.8 153.0 M398.8 153.0 L401.8 155.0 M469.0 155.0 L472.9 152.3 M472.9 152.3 L477.1 150.8 M477.1 150.8 L481.2 149.9 M481.2 149.9 L485.3 153.6 M485.3 153.6 L486.3 155.0 M639.1 147.5 L641.8 154.4 M641.8 154.4 L642.1 155.0 M651.2 155.0 L654.1 150.6 M655.7 147.5 L654.1 150.6 M668.6 147.5 L670.6 154.0 M670.6 154.0 L670.9 155.0 M693.5 155.0 L695.3 149.4 M695.9 147.5 L695.3 149.4 M726.2 147.5 L728.2 149.4 M728.2 149.4 L732.4 150.3 M732.4 150.3 L736.5 151.6 M736.5 151.6 L740.6 153.4 M740.6 153.4 L743.3 155.0 M747.4 147.5 L745.1 155.0 M374.8 162.5 L378.2 157.2 M378.2 157.2 L380.6 155.0 M401.8 155.0 L402.9 155.9 M402.9 155.9 L407.1 160.2 M407.1 160.2 L408.7 162.5 M465.0 162.5 L468.8 155.2 M468.8 155.2 L469.0 155.0 M486.3 155.0 L489.4 161.1 M489.4 161.1 L489.9 162.5 M642.1 155.0 L645.9 160.6 M645.9 160.6 L650.0 156.5 M651.2 155.0 L650.0 156.5 M670.9 155.0 L673.4 162.5 M690.4 162.5 L691.2 160.8 M693.5 155.0 L691.2 160.8 M703.5 162.5 L703.5 162.5 M703.5 162.5 L707.6 160.2 M707.6 160.2 L711.8 159.3 M711.8 159.3 L715.3 162.5 M743.3 155.0 L744.7 156.0 M745.1 155.0 L744.7 156.0 M372.3 170.0 L374.1 164.0 M374.1 164.0 L374.8 162.5 M408.7 162.5 L411.2 166.8 M411.2 166.8 L412.6 170.0 M463.0 170.0 L464.7 163.8 M464.7 163.8 L465.0 162.5 M489.9 162.5 L491.7 170.0 M673.4 162.5 L674.7 166.0 M674.7 166.0 L676.2 170.0 M685.6 170.0 L687.1 168.0 M690.4 162.5 L687.1 168.0 M703.5 162.5 L700.5 170.0 M715.3 162.5 L715.9 163.5 M715.9 163.5 L717.9 170.0 M372.3 170.0 L374.0 177.5 M409.9 177.5 L411.2 174.4 M412.6 170.0 L411.2 174.4 M463.0 170.0 L464.7 173.1 M464.7 173.1 L466.8 177.5 M491.7 170.0 L489.9 177.5 M676.2 170.0 L678.8 177.2 M678.8 177.2 L682.9 173.8 M685.6 170.0 L682.9 173.8 M700.5 170.0 L703.5 177.5 M715.2 177.5 L715.9 175.9 M717.9 170.0 L715.9 175.9 M374.0 177.5 L374.1 177.8 M374.1 177.8 L376.5 185.0 M404.1 185.0 L407.1 182.0 M409.9 177.5 L407.1 182.0 M466.8 177.5 L468.8 180.8 M468.8 180.8 L472.5 185.0 M486.6 185.0 L489.4 179.1 M489.9 177.5 L489.4 179.1 M703.5 177.5 L703.5 177.5 M703.5 177.5 L707.6 181.8 M707.6 181.8 L711.8 184.0 M715.2 177.5 L711.8 184.0 M744.3 185.0 L744.7 184.0 M744.7 184.0 L748.8 181.0 M748.8 181.0 L752.9 180.0 M752.9 180.0 L757.1 179.4 M757.1 179.4 L761.2 179.1 M761.2 179.1 L765.3 182.2 M765.3 182.2 L767.6 185.0 M376.5 185.0 L378.2 189.1 M378.2 189.1 L380.1 192.5 M388.9 192.5 L390.6 191.7 M390.6 191.7 L394.7 190.0 M394.7 190.0 L398.8 188.3 M398.8 188.3 L402.9 185.9 M404.1 185.0 L402.9 185.9 M472.5 185.0 L472.9 185.4 M472.9 185.4 L477.1 188.4 M477.1 188.4 L481.2 190.6 M481.2 190.6 L485.3 186.8 M486.6 185.0 L485.3 186.8 M744.3 185.0 L742.0 192.5 M767.6 185.0 L769.4 188.3 M769.4 188.3 L771.0 192.5 M331.2 200.0 L332.9 196.9 M332.9 196.9 L334.7 200.0 M380.1 192.5 L382.4 195.7 M382.4 195.7 L386.5 193.6 M388.9 192.5 L386.5 193.6 M544.6 200.0 L547.1 195.5 M547.1 195.5 L549.6 200.0 M740.3 200.0 L740.6 198.6 M740.6 198.6 L742.0 192.5 M771.0 192.5 L772.6 200.0"/><animate attributeName="opacity" values="0.21;0.21;1;0.21;0.21" keyTimes="0;0.12;0.2;0.32;1" dur="12s" begin="1.50s" repeatCount="indefinite"/></g><g fill="none" stroke="#4dd4e0" stroke-width="1.24" stroke-linecap="round" opacity="0.23" filter="url(#glow)"><path d="M688.3 20.0 L691.2 24.5 M691.2 24.5 L695.3 26.1 M698.8 20.0 L695.3 26.1 M677.2 35.0 L678.8 31.5 M678.8 31.5 L682.5 35.0 M677.2 35.0 L675.0 42.5 M682.5 35.0 L682.9 36.0 M682.9 36.0 L684.2 42.5 M673.7 50.0 L674.7 43.9 M674.7 43.9 L675.0 42.5 M684.2 42.5 L684.7 50.0 M673.7 50.0 L674.7 54.1 M674.7 54.1 L675.6 57.5 M684.7 50.0 L683.0 57.5 M675.6 57.5 L678.1 65.0 M679.9 65.0 L682.9 57.6 M683.0 57.5 L682.9 57.6 M678.1 65.0 L678.8 66.7 M679.9 65.0 L678.8 66.7 M675.0 87.5 L678.8 83.9 M678.8 83.9 L682.9 86.2 M682.9 86.2 L684.3 87.5 M670.9 95.0 L674.7 87.9 M674.7 87.9 L675.0 87.5 M684.3 87.5 L687.1 91.9 M687.1 91.9 L688.1 95.0 M668.8 102.5 L670.6 95.8 M670.6 95.8 L670.9 95.0 M688.1 95.0 L689.5 102.5 M668.8 102.5 L667.5 110.0 M689.5 102.5 L690.3 110.0 M734.0 110.0 L736.5 107.9 M736.5 107.9 L740.6 105.4 M740.6 105.4 L744.7 103.7 M744.7 103.7 L748.2 110.0 M667.5 110.0 L668.0 117.5 M690.3 110.0 L690.0 117.5 M734.0 110.0 L736.2 117.5 M748.2 110.0 L746.9 117.5 M668.0 117.5 L668.9 125.0 M690.0 117.5 L689.5 125.0 M736.2 117.5 L736.5 118.1 M736.5 118.1 L740.6 124.6 M740.6 124.6 L741.0 125.0 M746.9 117.5 L745.4 125.0 M668.9 125.0 L670.6 132.5 M689.5 125.0 L688.5 132.5 M741.0 125.0 L744.7 127.8 M745.4 125.0 L744.7 127.8 M642.4 140.0 L645.9 133.7 M645.9 133.7 L650.0 138.5 M650.0 138.5 L651.0 140.0 M670.6 132.5 L670.6 132.5 M670.6 132.5 L674.7 139.9 M674.7 139.9 L674.8 140.0 M684.9 140.0 L687.1 137.0 M688.5 132.5 L687.1 137.0 M642.4 140.0 L645.5 147.5 M646.4 147.5 L650.0 141.9 M651.0 140.0 L650.0 141.9 M674.8 140.0 L677.3 147.5 M681.3 147.5 L682.9 144.3 M684.9 140.0 L682.9 144.3 M645.5 147.5 L645.9 148.2 M646.4 147.5 L645.9 148.2 M677.3 147.5 L678.8 151.8 M681.3 147.5 L678.8 151.8 M474.6 162.5 L477.1 160.1 M477.1 160.1 L481.2 157.4 M481.2 157.4 L484.7 162.5 M378.0 170.0 L378.2 169.6 M378.2 169.6 L382.4 163.0 M382.4 163.0 L386.5 163.3 M386.5 163.3 L390.6 163.7 M390.6 163.7 L394.7 164.1 M394.7 164.1 L398.8 164.5 M398.8 164.5 L402.9 169.5 M402.9 169.5 L403.3 170.0 M470.1 170.0 L472.9 164.7 M472.9 164.7 L474.6 162.5 M484.7 162.5 L485.3 163.6 M485.3 163.6 L487.8 170.0 M378.0 170.0 L378.2 170.6 M378.2 170.6 L380.7 177.5 M393.2 177.5 L394.7 177.1 M394.7 177.1 L398.8 175.9 M398.8 175.9 L402.9 170.5 M403.3 170.0 L402.9 170.5 M470.1 170.0 L472.9 174.6 M472.9 174.6 L475.2 177.5 M484.8 177.5 L485.3 176.5 M487.8 170.0 L485.3 176.5 M380.7 177.5 L382.4 181.1 M382.4 181.1 L386.5 179.6 M386.5 179.6 L390.6 178.3 M393.2 177.5 L390.6 178.3 M475.2 177.5 L477.1 179.5 M477.1 179.5 L481.2 182.9 M484.8 177.5 L481.2 182.9 M750.8 192.5 L752.9 190.0 M752.9 190.0 L757.1 187.0 M757.1 187.0 L761.2 185.2 M761.2 185.2 L765.3 190.3 M765.3 190.3 L766.5 192.5 M747.3 200.0 L748.8 196.0 M748.8 196.0 L750.8 192.5 M766.5 192.5 L769.3 200.0"/><animate attributeName="opacity" values="0.23;0.23;1;0.23;0.23" keyTimes="0;0.12;0.2;0.32;1" dur="12s" begin="3.00s" repeatCount="indefinite"/></g><g fill="none" stroke="#4dd4e0" stroke-width="1.36" stroke-linecap="round" opacity="0.26" filter="url(#glow)"><path d="M678.7 50.0 L678.8 49.4 M678.8 49.4 L679.0 50.0 M678.7 50.0 L678.8 50.6 M679.0 50.0 L678.8 50.6 M674.3 95.0 L674.7 94.2 M674.7 94.2 L678.8 88.7 M678.8 88.7 L682.9 93.0 M682.9 93.0 L684.1 95.0 M674.3 95.0 L671.3 102.5 M684.1 95.0 L686.8 102.5 M669.6 110.0 L670.6 105.3 M670.6 105.3 L671.3 102.5 M686.8 102.5 L687.1 103.6 M687.1 103.6 L688.2 110.0 M669.6 110.0 L670.6 117.5 M688.2 110.0 L687.4 117.5 M670.6 117.5 L670.6 117.5 M670.6 117.5 L672.2 125.0 M685.9 125.0 L687.1 119.5 M687.4 117.5 L687.1 119.5 M672.2 125.0 L674.7 131.4 M674.7 131.4 L675.3 132.5 M682.9 132.5 L682.9 132.4 M685.9 125.0 L682.9 132.4 M675.3 132.5 L678.8 136.9 M682.9 132.5 L678.8 136.9 M476.7 170.0 L477.1 169.5 M477.1 169.5 L481.2 164.9 M481.2 164.9 L483.9 170.0 M476.7 170.0 L477.1 170.5 M477.1 170.5 L481.2 175.3 M483.9 170.0 L481.2 175.3 M759.5 192.5 L761.2 191.3 M761.2 191.3 L762.1 192.5 M753.0 200.0 L757.1 194.6 M757.1 194.6 L759.5 192.5 M762.1 192.5 L765.3 198.4 M765.3 198.4 L766.0 200.0"/><animate attributeName="opacity" values="0.26;0.26;1;0.26;0.26" keyTimes="0;0.12;0.2;0.32;1" dur="12s" begin="4.50s" repeatCount="indefinite"/></g><g fill="none" stroke="#4dd4e0" stroke-width="1.48" stroke-linecap="round" opacity="0.29" filter="url(#glow)"><path d="M677.7 95.0 L678.8 93.4 M678.8 93.4 L680.2 95.0 M673.9 102.5 L674.7 100.5 M674.7 100.5 L677.7 95.0 M680.2 95.0 L682.9 99.7 M682.9 99.7 L684.1 102.5 M673.9 102.5 L671.6 110.0 M684.1 102.5 L686.1 110.0 M671.6 110.0 L673.1 117.5 M686.1 110.0 L684.7 117.5 M673.1 117.5 L674.7 122.8 M674.7 122.8 L675.6 125.0 M682.4 125.0 L682.9 123.6 M684.7 117.5 L682.9 123.6 M675.6 125.0 L678.8 130.9 M682.4 125.0 L678.8 130.9 M758.7 200.0 L761.2 197.4 M761.2 197.4 L762.6 200.0"/><animate attributeName="opacity" values="0.29;0.29;1;0.29;0.29" keyTimes="0;0.12;0.2;0.32;1" dur="12s" begin="6.00s" repeatCount="indefinite"/></g><g fill="none" stroke="#4dd4e0" stroke-width="1.60" stroke-linecap="round" opacity="0.32" filter="url(#glow)"><path d="M676.5 102.5 L678.8 98.1 M678.8 98.1 L681.3 102.5 M673.7 110.0 L674.7 106.8 M674.7 106.8 L676.5 102.5 M681.3 102.5 L682.9 106.5 M682.9 106.5 L684.0 110.0 M673.7 110.0 L674.7 114.3 M674.7 114.3 L675.7 117.5 M682.1 117.5 L682.9 114.7 M684.0 110.0 L682.9 114.7 M675.7 117.5 L678.8 124.9 M682.1 117.5 L678.8 124.9"/><animate attributeName="opacity" values="0.32;0.32;1;0.32;0.32" keyTimes="0;0.12;0.2;0.32;1" dur="12s" begin="7.50s" repeatCount="indefinite"/></g><g fill="none" stroke="#4dd4e0" stroke-width="1.72" stroke-linecap="round" opacity="0.34" filter="url(#glow)"><path d="M675.7 110.0 L678.8 102.9 M678.8 102.9 L681.9 110.0 M675.7 110.0 L678.2 117.5 M681.9 110.0 L679.5 117.5 M678.2 117.5 L678.8 119.0 M679.5 117.5 L678.8 119.0"/><animate attributeName="opacity" values="0.34;0.34;1;0.34;0.34" keyTimes="0;0.12;0.2;0.32;1" dur="12s" begin="9.00s" repeatCount="indefinite"/></g><g fill="none" stroke="#4dd4e0" stroke-width="1.84" stroke-linecap="round" opacity="0.37" filter="url(#glow)"><path d="M677.8 110.0 L678.8 107.6 M678.8 107.6 L679.9 110.0 M677.8 110.0 L678.8 113.0 M679.9 110.0 L678.8 113.0"/><animate attributeName="opacity" values="0.37;0.37;1;0.37;0.37" keyTimes="0;0.12;0.2;0.32;1" dur="12s" begin="10.50s" repeatCount="indefinite"/></g></svg>